<?xml version="1.0" encoding="UTF-8"?>
<svg xmlns="http://www.w3.org/2000/svg" xmlns:xlink="http://www.w3.org/1999/xlink" width="854" height="480" viewBox="0 0 854 480">
<defs>
<g>
<g id="glyph-0-0">
<path d="M 0.429688 -5.941406 L 0.429688 -5.390625 L 3.398438 -5.390625 L 3.398438 0.792969 L 3.964844 0.792969 L 3.964844 -3.625 C 4.667969 -3.25 5.539062 -2.722656 6.570312 -2.039062 L 6.90625 -2.535156 C 5.910156 -3.171875 4.929688 -3.734375 3.964844 -4.214844 L 3.964844 -5.390625 L 7.34375 -5.390625 L 7.34375 -5.941406 Z "/>
</g>
<g id="glyph-0-1">
<path d="M 3.980469 -2.878906 L 5.367188 -2.878906 L 5.367188 -1.828125 L 3.980469 -1.828125 Z M 3.980469 -1.304688 L 5.367188 -1.304688 L 5.367188 -0.148438 L 3.980469 -0.148438 Z M 3.980469 0.390625 L 7.355469 0.390625 L 7.355469 -0.148438 L 5.917969 -0.148438 L 5.917969 -1.304688 L 7.117188 -1.304688 L 7.117188 -1.828125 L 5.917969 -1.828125 L 5.917969 -2.878906 L 7.117188 -2.878906 L 7.117188 -3.40625 L 5.917969 -3.40625 L 5.917969 -4.464844 L 7.273438 -4.464844 L 7.273438 -5.007812 L 5.785156 -5.007812 L 5.996094 -5.085938 C 5.894531 -5.476562 5.753906 -5.894531 5.570312 -6.363281 L 5.03125 -6.214844 C 5.210938 -5.824219 5.367188 -5.421875 5.492188 -5.007812 L 4.082031 -5.007812 C 4.253906 -5.40625 4.402344 -5.808594 4.519531 -6.230469 L 3.972656 -6.339844 C 3.710938 -5.328125 3.265625 -4.402344 2.628906 -3.5625 L 2.816406 -2.972656 C 3.03125 -3.234375 3.242188 -3.515625 3.429688 -3.8125 L 3.429688 0.746094 L 3.980469 0.746094 Z M 5.367188 -4.464844 L 5.367188 -3.40625 L 3.980469 -3.40625 L 3.980469 -4.464844 Z M 2.714844 -3.148438 C 2.480469 -3.03125 2.238281 -2.925781 1.992188 -2.816406 L 1.992188 -4.386719 L 2.777344 -4.386719 L 2.777344 -4.929688 L 1.992188 -4.929688 L 1.992188 -6.371094 L 1.421875 -6.371094 L 1.421875 -4.929688 L 0.429688 -4.929688 L 0.429688 -4.386719 L 1.421875 -4.386719 L 1.421875 -2.597656 C 1.066406 -2.472656 0.691406 -2.363281 0.3125 -2.277344 L 0.449219 -1.71875 C 0.777344 -1.8125 1.105469 -1.921875 1.421875 -2.03125 L 1.421875 -0.15625 C 1.421875 0.046875 1.3125 0.148438 1.105469 0.148438 C 0.902344 0.148438 0.683594 0.132812 0.464844 0.109375 L 0.582031 0.652344 L 1.296875 0.652344 C 1.757812 0.652344 1.992188 0.429688 1.992188 -0.0078125 L 1.992188 -2.253906 C 2.238281 -2.355469 2.480469 -2.464844 2.714844 -2.582031 Z "/>
</g>
<g id="glyph-0-2">
<path d="M 6.5 -5.429688 L 3.523438 -5.429688 C 3.679688 -5.691406 3.804688 -5.988281 3.890625 -6.300781 L 3.320312 -6.378906 C 3.242188 -6.050781 3.109375 -5.738281 2.941406 -5.429688 L 1.277344 -5.429688 L 1.277344 0.769531 L 1.84375 0.769531 L 1.84375 0.289062 L 5.933594 0.289062 L 5.933594 0.769531 L 6.5 0.769531 Z M 1.84375 -0.25 L 1.84375 -1.515625 L 5.933594 -1.515625 L 5.933594 -0.25 Z M 1.84375 -2.03125 L 1.84375 -3.21875 L 5.933594 -3.21875 L 5.933594 -2.03125 Z M 1.84375 -3.734375 L 1.84375 -4.890625 L 5.933594 -4.890625 L 5.933594 -3.734375 Z "/>
</g>
<g id="glyph-0-3">
<path d="M 0.699219 -5.808594 L 0.699219 -5.273438 L 3.515625 -5.273438 L 3.515625 -5.808594 Z M 0.398438 -3.710938 L 0.398438 -3.164062 L 1.476562 -3.164062 C 1.089844 -1.75 0.777344 -0.886719 0.542969 -0.566406 C 0.511719 -0.550781 0.472656 -0.535156 0.421875 -0.519531 L 0.550781 0.0078125 C 1.515625 -0.164062 2.417969 -0.398438 3.242188 -0.691406 C 3.320312 -0.511719 3.398438 -0.328125 3.476562 -0.125 L 3.957031 -0.375 C 3.632812 -1.160156 3.28125 -1.882812 2.910156 -2.550781 L 2.433594 -2.316406 C 2.636719 -1.960938 2.832031 -1.578125 3.03125 -1.160156 C 2.425781 -0.933594 1.8125 -0.753906 1.199219 -0.628906 C 1.429688 -1.144531 1.703125 -1.984375 2.015625 -3.164062 L 3.8125 -3.164062 L 3.8125 -3.710938 Z M 4.976562 -6.332031 L 4.976562 -4.757812 L 3.925781 -4.757812 L 3.925781 -4.214844 L 4.976562 -4.214844 L 4.976562 -4.121094 C 4.960938 -2.03125 4.464844 -0.511719 3.492188 0.429688 L 3.910156 0.792969 C 4.96875 -0.242188 5.515625 -1.882812 5.539062 -4.121094 L 5.539062 -4.214844 L 6.6875 -4.214844 C 6.671875 -2.125 6.640625 -0.871094 6.59375 -0.457031 C 6.53125 -0.015625 6.308594 0.210938 5.925781 0.210938 C 5.714844 0.210938 5.46875 0.195312 5.1875 0.179688 L 5.3125 0.675781 C 5.636719 0.691406 5.863281 0.699219 5.996094 0.699219 C 6.664062 0.699219 7.046875 0.382812 7.125 -0.25 C 7.195312 -0.824219 7.234375 -2.324219 7.234375 -4.757812 L 5.539062 -4.757812 L 5.539062 -6.332031 Z "/>
</g>
<g id="glyph-0-4">
<path d="M 0.449219 -4.828125 L 0.449219 -4.292969 L 1.585938 -4.292969 C 1.328125 -3.320312 0.902344 -2.457031 0.304688 -1.703125 L 0.542969 -1.097656 C 0.980469 -1.734375 1.335938 -2.433594 1.609375 -3.210938 L 1.609375 0.738281 L 2.167969 0.738281 L 2.167969 -3.359375 C 2.386719 -3.054688 2.644531 -2.660156 2.941406 -2.167969 L 3.265625 -2.652344 C 2.894531 -3.109375 2.527344 -3.523438 2.167969 -3.894531 L 2.167969 -4.292969 L 3.132812 -4.292969 L 3.132812 -4.828125 L 2.167969 -4.828125 L 2.167969 -6.347656 L 1.609375 -6.347656 L 1.609375 -4.828125 Z M 2.769531 0.398438 L 3.226562 0.808594 C 3.59375 0.25 3.84375 -0.328125 3.972656 -0.933594 C 4.113281 -1.507812 4.183594 -2.222656 4.183594 -3.078125 L 4.183594 -5.5 L 5.570312 -5.5 L 5.570312 -0.0859375 C 5.570312 0.367188 5.816406 0.589844 6.316406 0.589844 L 6.632812 0.589844 C 6.882812 0.589844 7.070312 0.542969 7.195312 0.457031 C 7.320312 0.351562 7.394531 0.164062 7.425781 -0.117188 C 7.457031 -0.414062 7.480469 -0.832031 7.480469 -1.390625 L 6.96875 -1.554688 C 6.96875 -0.808594 6.945312 -0.367188 6.914062 -0.210938 C 6.898438 -0.101562 6.859375 -0.03125 6.796875 0.015625 C 6.742188 0.046875 6.671875 0.0625 6.578125 0.0625 L 6.316406 0.0625 C 6.191406 0.0625 6.136719 -0.0078125 6.136719 -0.140625 L 6.136719 -6.027344 L 3.625 -6.027344 L 3.625 -3.078125 C 3.625 -2.277344 3.570312 -1.640625 3.46875 -1.167969 C 3.335938 -0.613281 3.101562 -0.09375 2.769531 0.398438 Z "/>
</g>
<g id="glyph-0-5">
<rect x="0" y="0" width="0" height="0" mask="url(#mask-0)"/>
</g>
<g id="glyph-1-0">
<path d="M 0.355469 -1.953125 C 0.355469 -2.832031 0.621094 -3.605469 1.148438 -4.273438 C 1.472656 -4.679688 1.851562 -5.007812 2.292969 -5.253906 L 2.367188 -5.128906 C 1.957031 -4.804688 1.667969 -4.492188 1.492188 -4.183594 C 1.1875 -3.648438 1.03125 -2.9375 1.03125 -2.050781 C 1.03125 -1.390625 1.089844 -0.847656 1.207031 -0.421875 C 1.414062 0.328125 1.796875 0.886719 2.367188 1.261719 L 2.265625 1.386719 C 1.957031 1.238281 1.617188 0.945312 1.257812 0.507812 C 0.65625 -0.214844 0.355469 -1.03125 0.355469 -1.953125 Z "/>
</g>
<g id="glyph-1-1">
<path d="M 3.363281 -3.734375 C 3.363281 -4.210938 3.160156 -4.535156 2.75 -4.710938 C 2.53125 -4.808594 2.25 -4.855469 1.914062 -4.855469 C 1.753906 -4.855469 1.65625 -4.839844 1.621094 -4.808594 C 1.582031 -4.777344 1.566406 -4.707031 1.566406 -4.597656 L 1.566406 -2.570312 C 1.703125 -2.558594 1.796875 -2.550781 1.839844 -2.546875 C 1.882812 -2.546875 1.921875 -2.542969 1.964844 -2.542969 C 2.320312 -2.542969 2.601562 -2.59375 2.804688 -2.695312 C 3.179688 -2.878906 3.363281 -3.226562 3.363281 -3.734375 Z M 0.125 -0.140625 C 0.421875 -0.167969 0.605469 -0.226562 0.679688 -0.316406 C 0.753906 -0.40625 0.789062 -0.613281 0.789062 -0.933594 L 0.789062 -4.300781 C 0.789062 -4.574219 0.75 -4.753906 0.667969 -4.839844 C 0.585938 -4.925781 0.402344 -4.980469 0.125 -5 L 0.125 -5.144531 L 2.175781 -5.144531 C 2.835938 -5.144531 3.339844 -5.019531 3.6875 -4.761719 C 4.035156 -4.507812 4.210938 -4.167969 4.210938 -3.753906 C 4.210938 -3.222656 4.019531 -2.839844 3.628906 -2.601562 C 3.242188 -2.363281 2.757812 -2.246094 2.175781 -2.246094 C 2.09375 -2.246094 1.984375 -2.246094 1.855469 -2.25 C 1.726562 -2.253906 1.628906 -2.253906 1.566406 -2.253906 L 1.566406 -0.84375 C 1.566406 -0.550781 1.609375 -0.363281 1.699219 -0.289062 C 1.789062 -0.210938 1.988281 -0.164062 2.300781 -0.140625 L 2.300781 0 L 0.125 0 Z "/>
</g>
<g id="glyph-1-2">
<path d="M 1.597656 -0.601562 C 1.597656 -0.472656 1.628906 -0.390625 1.691406 -0.347656 C 1.753906 -0.308594 1.882812 -0.289062 2.078125 -0.289062 C 2.683594 -0.289062 3.183594 -0.410156 3.578125 -0.648438 C 4.179688 -1.019531 4.480469 -1.652344 4.480469 -2.542969 C 4.480469 -3.339844 4.234375 -3.941406 3.738281 -4.34375 C 3.3125 -4.6875 2.75 -4.859375 2.046875 -4.859375 C 1.871094 -4.859375 1.753906 -4.84375 1.691406 -4.804688 C 1.628906 -4.765625 1.597656 -4.683594 1.597656 -4.554688 Z M 0.125 -0.140625 C 0.410156 -0.171875 0.59375 -0.222656 0.679688 -0.292969 C 0.765625 -0.367188 0.808594 -0.550781 0.808594 -0.84375 L 0.808594 -4.300781 C 0.808594 -4.585938 0.765625 -4.769531 0.683594 -4.847656 C 0.601562 -4.929688 0.414062 -4.980469 0.125 -5 L 0.125 -5.144531 L 2.222656 -5.144531 C 2.929688 -5.144531 3.523438 -5.027344 4.015625 -4.796875 C 4.894531 -4.378906 5.335938 -3.632812 5.335938 -2.554688 C 5.335938 -2.167969 5.257812 -1.800781 5.097656 -1.449219 C 4.941406 -1.101562 4.703125 -0.804688 4.382812 -0.566406 C 4.179688 -0.414062 3.96875 -0.296875 3.753906 -0.21875 C 3.355469 -0.0742188 2.867188 0 2.285156 0 L 0.125 0 Z "/>
</g>
<g id="glyph-1-3">
<path d="M 3.472656 -1.996094 L 2.570312 -4.140625 L 1.683594 -1.996094 Z M 0.113281 0 L 0.113281 -0.140625 C 0.3125 -0.164062 0.464844 -0.238281 0.5625 -0.367188 C 0.664062 -0.496094 0.835938 -0.847656 1.078125 -1.421875 L 2.699219 -5.238281 L 2.851562 -5.238281 L 4.789062 -0.828125 C 4.917969 -0.535156 5.019531 -0.351562 5.097656 -0.28125 C 5.175781 -0.210938 5.304688 -0.164062 5.488281 -0.140625 L 5.488281 0 L 3.507812 0 L 3.507812 -0.140625 C 3.738281 -0.160156 3.882812 -0.183594 3.949219 -0.214844 C 4.015625 -0.242188 4.046875 -0.316406 4.046875 -0.429688 C 4.046875 -0.46875 4.035156 -0.535156 4.011719 -0.628906 C 3.984375 -0.726562 3.949219 -0.828125 3.902344 -0.933594 L 3.582031 -1.683594 L 1.546875 -1.683594 C 1.34375 -1.175781 1.222656 -0.863281 1.183594 -0.75 C 1.144531 -0.636719 1.125 -0.546875 1.125 -0.480469 C 1.125 -0.351562 1.175781 -0.257812 1.285156 -0.207031 C 1.351562 -0.179688 1.472656 -0.15625 1.65625 -0.140625 L 1.65625 0 Z "/>
</g>
<g id="glyph-1-4">
<path d="M 2.214844 -1.914062 C 2.214844 -1.535156 2.164062 -1.179688 2.066406 -0.84375 C 1.96875 -0.507812 1.824219 -0.1875 1.632812 0.109375 C 1.433594 0.429688 1.164062 0.726562 0.832031 1.003906 C 0.613281 1.183594 0.425781 1.3125 0.277344 1.386719 L 0.203125 1.261719 C 0.59375 0.964844 0.878906 0.660156 1.058594 0.351562 C 1.378906 -0.195312 1.539062 -0.917969 1.539062 -1.816406 C 1.539062 -2.542969 1.464844 -3.136719 1.316406 -3.597656 C 1.113281 -4.246094 0.742188 -4.757812 0.203125 -5.128906 L 0.304688 -5.253906 C 0.703125 -5.03125 1.074219 -4.695312 1.421875 -4.246094 C 1.949219 -3.550781 2.214844 -2.773438 2.214844 -1.914062 Z "/>
</g>
</g>
<image id="source-110" x="0" y="0" width="0" height="0"/>
<mask id="mask-0">
<use xlink:href="#source-110"/>
</mask>
</defs>
<g fill="rgb(100%, 100%, 100%)" fill-opacity="1">
<use xlink:href="#glyph-0-0" x="30" y="28.244141"/>
<use xlink:href="#glyph-0-1" x="38" y="28.244141"/>
<use xlink:href="#glyph-0-2" x="46" y="28.244141"/>
<use xlink:href="#glyph-0-3" x="54" y="28.244141"/>
<use xlink:href="#glyph-0-4" x="62" y="28.244141"/>
<use xlink:href="#glyph-0-5" x="70" y="28.244141"/>
</g>
<g fill="rgb(100%, 100%, 100%)" fill-opacity="1">
<use xlink:href="#glyph-1-0" x="30" y="33.415039"/>
<use xlink:href="#glyph-1-1" x="33" y="33.415039"/>
<use xlink:href="#glyph-1-2" x="37" y="33.415039"/>
<use xlink:href="#glyph-1-3" x="43" y="33.415039"/>
<use xlink:href="#glyph-1-4" x="49" y="33.415039"/>
</g>
</svg>
