<?xml version="1.0" encoding="UTF-8"?>
<svg xmlns="http://www.w3.org/2000/svg" xmlns:xlink="http://www.w3.org/1999/xlink" width="854" height="480" viewBox="0 0 854 480">
<defs>
<g>
<g id="glyph-0-0">
<path d="M 2.265625 -4.433594 L 0.402344 -1.800781 L 2.265625 -1.800781 Z M 2.519531 -5.21875 L 2.878906 -5.21875 L 2.878906 -1.800781 L 3.671875 -1.800781 L 3.671875 -1.296875 L 2.878906 -1.296875 L 2.878906 0 L 2.273438 0 L 2.273438 -1.296875 L 0.0859375 -1.296875 L 0.0859375 -1.800781 Z "/>
</g>
<g id="glyph-0-1">
<path d="M 1.269531 0.0898438 C 1.148438 0.0898438 1.042969 0.046875 0.960938 -0.0351562 C 0.878906 -0.121094 0.835938 -0.222656 0.835938 -0.339844 C 0.835938 -0.460938 0.878906 -0.5625 0.960938 -0.644531 C 1.046875 -0.730469 1.148438 -0.769531 1.269531 -0.769531 C 1.386719 -0.769531 1.488281 -0.730469 1.570312 -0.644531 C 1.65625 -0.5625 1.699219 -0.460938 1.699219 -0.339844 C 1.699219 -0.222656 1.65625 -0.121094 1.574219 -0.0351562 C 1.492188 0.0507812 1.390625 0.0898438 1.269531 0.0898438 Z "/>
</g>
</g>
</defs>
<g fill="rgb(100%, 100%, 0%)" fill-opacity="1">
<use xlink:href="#glyph-0-0" x="30" y="25.833008"/>
<use xlink:href="#glyph-0-1" x="34" y="25.833008"/>
</g>
</svg>
